<svg xmlns="http://www.w3.org/2000/svg" width="24" height="24" viewBox="0 0 24 24"><path fill="currentColor" d="M6 21q-.825 0-1.412-.587T4 19V5q0-.825.588-1.412T6 3h6q.425 0 .713.288T13 4q0 .425-.288.713T12 5H6v14h12v-6q0-.425.288-.712T19 12q.425 0 .713.288T20 13v6q0 .825-.587 1.413T18 21H6Zm10-12.6l-5.9 5.9q-.275.275-.7.275t-.7-.275q-.275-.275-.275-.7t.275-.7L14.6 7H12q-.425 0-.712-.288T11 6q0-.425.288-.712T12 5h5q.425 0 .713.288T18 6v5q0 .425-.288.713T17 12q-.425 0-.712-.288T16 11V8.4Z"/></svg>
